<?xml version="1.0" encoding="utf-8"?>
<!-- Generator: Adobe Illustrator 19.0.0, SVG Export Plug-In . SVG Version: 6.00 Build 0)  -->
<svg version="1.1" id="Capa_1" xmlns="http://www.w3.org/2000/svg" xmlns:xlink="http://www.w3.org/1999/xlink" x="0px" y="0px"
	 viewBox="0 0 1119 341" style="enable-background:new 0 0 1119 341;" xml:space="preserve">
<style type="text/css">
	.st0{clip-path:url(#SVGID_2_);}
	.st1{fill:#009EFF;}
	.st2{fill:#990D3F;}
	.st3{clip-path:url(#SVGID_4_);}
	.st4{fill:#A1D884;}
	.st5{clip-path:url(#SVGID_6_);}
	.st6{fill:#FFFFFF;}
	.st7{fill:#FCC1BB;}
	.st8{fill:#F8C1BC;}
	.st9{fill:#F9C1BB;}
	.st10{fill:#EDBEB9;}
	.st11{fill:#DCDCDC;}
	.st12{fill:#EDEDED;}
	.st13{clip-path:url(#SVGID_8_);}
	.st14{fill:#FFB347;}
	.st15{fill:#66575C;}
</style>
<g>
	<g>
		<g>
			<g>
				<defs>
					<circle id="SVGID_1_" cx="185.1" cy="170.5" r="121"/>
				</defs>
				<clipPath id="SVGID_2_">
					<use xlink:href="#SVGID_1_"  style="overflow:visible;"/>
				</clipPath>
				<g class="st0">
					<path class="st1" d="M937.6,137.5c-6.7,9.8-13.2,15.4-25.9,6.1c-6.6-4.9-17.3-2.6-24.5,3.9c-5,4.6-7.8,3.5-10.7-2.1
						c-3.3-6.3-8.4-11.1-14.4-14.7c-4.1-2.5-6.4-4.9-2.4-9.4c4.1-4.6,5-10.4,5.6-16.3c1.7-17.4,9.5-31.1,26.8-36.7
						c16.8-5.4,30.9,0.2,42.1,13.6c0.9,1.1,2.3,1.8,3.4,2.8C937.6,102.3,937.6,119.9,937.6,137.5z"/>
					<path class="st1" d="M937.6-124.3c-1.4,1.7-3.2,3.2-4.1,5.1c-4.2,8.7-8.7,9.7-17.5,4.1c-8.5-5.4-19.3-4.7-28.1,1.6
						c-5.8,4.2-9.1,3.2-11.9-2.7c-0.3-0.7-1.1-1.2-1.2-1.8c-0.8-10-23.2-7.3-13.7-23.2c5.4-9.1,3.8-20,7.7-29.6
						c10.3-24.8,43.2-30.9,62-11.4c2.3,2.4,4.4,4.9,6.6,7.3C937.6-158.1,937.6-141.2,937.6-124.3z"/>
					<path class="st1" d="M937.6,267.3c-6.7,9.9-13.2,15.8-25.9,6.4c-6.6-4.9-16.8-2.6-23.6,3.3c-6.2,5.4-9.3,3.5-12.1-2.8
						c-0.1-0.3-0.5-0.6-0.6-0.9c-1.6-9.9-21.5-8.5-15.1-21.8c4.7-9.7,4.5-19.9,7.8-29.4c9-26.1,42.1-34,61.8-14.5
						c2.8,2.8,5.2,6.1,7.8,9.2C937.6,233.6,937.6,250.4,937.6,267.3z"/>
					<path class="st1" d="M937.6,7.7c-1.4,1.2-3.4,2.1-4.1,3.5c-4,8.2-8.3,9.7-16.8,4.2c-9.1-5.9-19.9-5.1-29,1.4
						c-5.3,3.8-7.7,2.5-11.3-2.2c-9.3-12.4-13-25.1-11.3-38.8c2.2-18.3,10-32.3,28.3-38c17.8-5.5,31.2,2.6,42.5,15.8
						c0.5,0.5,1.2,0.9,1.7,1.3C937.6-27.5,937.6-9.9,937.6,7.7z"/>
					<path class="st1" d="M290.7-296c-0.3,10,0,19.8,7.2,27.9c2.7,3,1.6,5.2-1.6,6.9c-1.3,0.7-2.7,1.3-3.6,2.4
						c-9.9,12.1-19.4,22.6-37,10.4c-5.2-3.6-13.6,0.7-19.2,5.2c-4.6,3.7-7.7,3.3-10.3-1.8c-0.2-0.3-0.5-0.6-0.6-0.9
						c-2.8-9.8-20.2-10.8-16.7-21.9c2.9-9.3,7-18.1,7-28.1C240.8-296,265.8-296,290.7-296z"/>
					<path class="st1" d="M420.5-296c0.1,9.9,0.5,19.8,7.4,27.9c2.7,3.1,1.3,5.2-1.8,6.9c-1.3,0.7-2.8,1.4-3.6,2.4
						c-9.8,12.4-19.5,22.2-36.9,10.3c-5.3-3.6-13.6,0.7-19.1,5.2c-4.7,3.8-7,2.7-10.2-2c-7-10.1-12.3-28.3-11-39.9
						c0.4-3.6,0.4-7.3,0.5-10.9C370.6-296,395.6-296,420.5-296z"/>
					<path class="st1" d="M550.3-296c0.1,10,0.8,19.8,7.6,27.9c2.7,3.2,1.1,5.2-1.7,7.1c-1.8,1.2-4.1,2.1-5.3,3.8
						c-8.8,11.9-17.5,20.2-33.3,8.9c-5.7-4.1-14.4,0.3-20.3,5c-4.9,3.8-7.8,4-11-1.8c-4.2-7.5-13.1-11.2-17.4-17.6
						c-4.7-7,7.7-13.4,6.5-22.2c-0.5-3.6,0.1-7.3,0.2-10.9C500.5-296,525.4-296,550.3-296z"/>
					<path class="st1" d="M158.7-296c3.6,9.4,1,20.6,9.2,28.6c1.8,1.7,0.8,4.1-1.3,5.6c-1.8,1.3-3.5,2.7-5.4,3.8
						c-7,4-9.2,13.7-15.3,16.4c-6.5,2.9-12.4-7.1-20.4-7.5c-6.9-0.4-13.2,1.2-18.5,5.3c-5.2,4-8,3.7-11.9-2.2
						c-13.1-19.8-13.6-20.2-10-43.5c0.3-2.2,0.6-4.3,0.8-6.5C110.3-296,134.5-296,158.7-296z"/>
					<path class="st1" d="M810-296c3,9.2,0.9,20,8.6,27.9c2.2,2.3,1.2,4.7-1.4,6.4c-0.9,0.6-1.8,1.2-2.7,1.9
						c-12,9.1-23.2,12.2-38.7,10.8c-6.9-0.6-13.2,1.5-18.5,5.6c-4.5,3.5-7.7,3.8-10.3-1.7c-0.2-0.3-0.5-0.6-0.6-0.9
						c-2.3-10.3-21-10.8-16.8-21.9c3.5-9.3,4.9-18.9,7.8-28.1C761.6-296,785.8-296,810-296z"/>
					<path class="st1" d="M680.2-296c0.3,9.7,1.4,19.1,7.6,27c3.4,4.3,0.9,6.5-2.5,8.6c-6.4,3.9-11.7,9-15.3,15.4
						c-3,5.3-6,4.8-10.5,1.5c-10.7-8.1-21.9-7.5-32.5,0.3c-4.7,3.4-7.8,3.8-10-1.9c-3.8-9.5-19.6-12.6-18-21.1
						c1.5-8.5,6.4-17.3,7.5-26.8c0.1-1.1,0.8-2,1.2-3.1C631.7-296,656-296,680.2-296z"/>
					<path class="st1" d="M937.6-254.2c-1.3,1.3-2.9,2.4-3.7,4c-4.3,8.7-8.8,11.4-18.1,4.6c-8.7-6.4-19.3-4.9-27.7,1.7
						c-6.4,4.9-8.6,2.7-12.4-2.9c-13.5-20.1-13.7-19.9-8.6-49.1c21.6,0,43.3,0.2,64.9-0.1c4.7-0.1,5.8,0.9,5.6,5.6
						C937.3-278.4,937.6-266.3,937.6-254.2z"/>
					<path class="st1" d="M57.5,260.7c27.1,6.3,33.9,13.6,38,40.5c0.4,2.9,0.7,6.2,2.4,8.3c7.1,9,5.6,14.6-4.4,20.7
						c-9,5.5-19.3,9.7-29.4,7.9c-2.1-0.4-4.4-0.3-6.5-0.4C57.5,312.1,57.5,286.4,57.5,260.7z"/>
					<path class="st1" d="M57.5-258.6c21.1,0.5,35.7,13.9,37.6,34.8c0.4,4.4,0.1,9.2,2.9,12.6c7.3,8.9,5.7,14-4.1,20.7
						c-14.8,10.1-14.1,11.1-30.9,7.3c-1.8-0.4-3.6-0.4-5.4-0.6C57.5-208.7,57.5-233.6,57.5-258.6z"/>
					<path class="st1" d="M57.5-128.7c22.3,1.6,35.7,14.6,37.8,36.6c0.3,3.3,0.1,7.4,2,9.5c9.6,11,2.9,16.1-5.1,24.7
						c-9.1,9.6-15.5,15.1-27.3,5.7c-1.8-1.4-4.9-1.1-7.4-1.6C57.5-78.9,57.5-103.8,57.5-128.7z"/>
					<path class="st1" d="M57.5,1.1c22.3,2,35.7,15.1,37.8,36.7c0.4,4,0.5,8.7,2.6,11.6c7.1,9.4,2.6,13.4-4.2,21.2
						c-10,11.5-18,16.2-30.9,6.4c-1.3-1-3.5-0.8-5.3-1.1C57.5,50.9,57.5,26,57.5,1.1z"/>
					<path class="st2" d="M57.5,130.9c24.7,4.1,34.7,14.4,37.9,39.3c0.3,2.5,0.3,5.6,1.8,7.4c8.7,10.8,2.9,16.2-5.2,24.7
						c-9.1,9.5-15.4,15.5-27.2,5.7c-1.8-1.5-4.8-1.6-7.3-2.3C57.5,180.8,57.5,155.8,57.5,130.9z"/>
					<path class="st1" d="M735.2,364.1c2-10.1,4.6-19.8,12.7-27.2c20.8-18.9,53.4-10.3,61.8,16.6c1.1,3.5,1.7,7.1,2.5,10.6
						C786.5,364.1,760.8,364.1,735.2,364.1z"/>
					<path class="st1" d="M215.9,364.1c0.2-21,15.3-36.8,36-37.5c20.3-0.7,36.7,15.1,38.8,37.5C265.8,364.1,240.8,364.1,215.9,364.1
						z"/>
					<path class="st1" d="M475.5,364.1c1.9-22.1,18.1-38,38.2-37.6c20.6,0.4,36.1,16.3,36.6,37.6
						C525.4,364.1,500.5,364.1,475.5,364.1z"/>
					<path class="st1" d="M605.3,364.1c3.2-20.7,14.3-33.7,31.6-37c14.9-2.9,31.5,5.3,39.6,19.2c3.3,5.6,4.5,11.4,3.6,17.8
						C655.2,364.1,630.3,364.1,605.3,364.1z"/>
					<path class="st1" d="M86.1,364.1c-0.4-18.2,10.1-31.7,28.5-36.4c15.8-4,33.9,4.4,41.5,19.6c2.7,5.3,4.2,10.9,4.8,16.8
						C135.9,364.1,111,364.1,86.1,364.1z"/>
					<path class="st1" d="M345.7,364.1c1.5-21.9,17.6-37.9,37.9-37.6c19.8,0.3,35.4,16.2,36.9,37.6
						C395.6,364.1,370.6,364.1,345.7,364.1z"/>
					<path class="st1" d="M865,364.1c0.6-2.5,1.3-4.9,1.9-7.4c3.3-15.7,13.5-25,28.4-29c14.1-3.8,25.9,1.5,36,11.3
						c2.4,2.3,4.2,5,6.3,7.6c0,17.6,0,17.6-17.6,17.6C901.7,364.1,883.3,364.1,865,364.1z"/>
					<path class="st1" d="M596.5-296c3.4,15.1-1.7,25.6-13.8,28.4c-12.1,2.8-22.8-5-23.7-17.5c-0.3-3.6,0.1-7.3,0.2-10.9
						C571.6-296,584.1-296,596.5-296z"/>
					<path class="st1" d="M466.7-296c1.1,6.1,2.5,12.1-0.9,18c-5,8.6-12.4,12.3-22,10.3c-9.8-2-14.6-9-15.5-18.6
						c-0.3-3.2,0.6-6.5,0.9-9.7C441.8-296,454.3-296,466.7-296z"/>
					<path class="st1" d="M336.9-296c0.1,2.9,0.4,5.8,0.4,8.7c-0.3,12.7-8.6,20.8-20.5,20.1c-12.1-0.7-19.8-10.7-18.2-23.4
						c0.2-1.8,0.6-3.6,0.9-5.4C312-296,324.4-296,336.9-296z"/>
					<path class="st1" d="M726.4-296c4.2,16.4-3.5,28.5-18,28.9c-13,0.4-25.3-15-17.2-28.9C702.9-296,714.6-296,726.4-296z"/>
					<path class="st1" d="M204.9-296c4.6,9.4,3.1,17.8-5,24.5c-6.9,5.8-14.9,6-22.4,1.3c-9.8-6.2-11.4-15.4-7.9-25.8
						C181.4-296,193.1-296,204.9-296z"/>
					<path class="st1" d="M856.2-296c4.7,10.1,2.2,18.6-6.4,25.1c-7.2,5.4-15.1,5.4-22.3,0c-8.6-6.4-11-15-6.5-25.1
						C832.7-296,844.4-296,856.2-296z"/>
					<path class="st1" d="M57.5-177.2c9.8,2.4,17.9,6.7,19.7,17.8c1.9,11.8-6.4,20.8-19.7,21.8C57.5-150.8,57.5-164,57.5-177.2z"/>
					<path class="st1" d="M57.5-45.1c11.5,0.8,18.5,6.5,19.8,16.3c1.5,11.1-4.7,18.5-19.8,23.3C57.5-18.7,57.5-31.9,57.5-45.1z"/>
					<path class="st1" d="M57.5,84.7c11.6,1.3,19.2,8,19.9,17.7c0.8,10.8-5.4,17.6-19.9,21.9C57.5,111.1,57.5,97.9,57.5,84.7z"/>
					<path class="st1" d="M57.5,214.5c11.5-0.8,20,11.4,20,19.2c0,10.4-6.9,17.7-20,20.4C57.5,240.9,57.5,227.7,57.5,214.5z"/>
					<path class="st1" d="M689,364.1c2.1-12.2,9.2-19.5,19.2-19.8c10.2-0.3,17.8,7,20.4,19.8C715.4,364.1,702.2,364.1,689,364.1z"/>
					<path class="st1" d="M818.8,364.1c2.5-12.7,10.1-20.1,20.4-19.8c9.9,0.3,17,7.6,19.2,19.8C845.2,364.1,832,364.1,818.8,364.1z"
						/>
					<path class="st1" d="M167.5,364.1c3.6-13.5,10.5-20.1,20.6-19.8c10,0.3,17.2,7.8,19,19.8C193.9,364.1,180.7,364.1,167.5,364.1z
						"/>
					<path class="st1" d="M427.1,364.1c7.1-18.6,19.9-24.7,32.7-15.6c5.4,3.9,7.6,9.5,9.1,15.6C455,364.1,441,364.1,427.1,364.1z"/>
					<path class="st1" d="M559.1,364.1c1.2-11.1,8-18.7,17.7-19.7c10-1,17.8,6,21.9,19.7C585.5,364.1,572.3,364.1,559.1,364.1z"/>
					<path class="st1" d="M297.3,364.1c6.1-18.9,20.9-25.3,33.4-14.4c4.4,3.8,7.1,8.3,6.2,14.4C323.7,364.1,310.5,364.1,297.3,364.1
						z"/>
					<path class="st1" d="M75.1-296c5.4,16.5-0.5,26-17.6,28.6c0-3.7,0-7.3,0-11C57.5-296,57.5-296,75.1-296z"/>
					<path class="st1" d="M318.3-129c18,0.1,32.9,12.9,36.9,31.6c1.8,8.5,1,17.7,7.7,24.7c2.9,3,0.7,5.3-2.1,7
						c-7.1,4.2-12.8,9.8-16.7,17c-2.3,4.3-4.8,4.4-8.7,1.6c-11.7-8.7-23.6-9.1-35.2,0.2c-3.3,2.7-5.8,2.6-8-1.2
						c-0.7-1.3-2.1-2.3-2.4-3.7c-2-9.9-20.5-9.5-15.9-21.1c3.7-9.4,4.9-18.9,7.7-28.3C286.7-118,301.3-129.1,318.3-129z"/>
					<path class="st1" d="M429.8-134.4c-0.9,1-1.6,2.4-2.8,3c-8,4.3-14,10.5-18.5,18.2c-2.4,4-4.8,3.2-8.1,0.9
						c-11.4-8-23.2-8.1-34.6,0c-4,2.8-6.5,2.4-8.9-1.6c-0.4-0.6-1.1-1.2-1.2-1.8c-1.7-10.6-21.7-9.9-16.5-22.4
						c4-9.7,5.1-19.6,7.9-29.3c4.7-15.9,21.4-27.8,37.5-26.7c17.8,1.1,33,14.4,35.6,31.9c1.3,8.8,1.8,17.5,7.9,24.6
						C428.8-136.9,429.1-135.8,429.8-134.4z"/>
					<path class="st1" d="M708.3,261.3c18.7-0.3,35.6,15.2,37.9,34.5c0.5,4-0.3,9.1,1.9,11.7c10,11.7,4.4,18.6-6.2,24.8
						c-1.2,0.7-2.4,1.9-3,3.2c-4.6,9.4-9.5,10.6-19.1,4.5c-7.9-5-18.7-4.3-26.9,2.1c-5.8,4.5-9,3-11.9-2.6c-0.2-0.3-0.6-0.6-0.6-0.9
						c-1.5-10.2-21.5-8.7-15.6-21.6c4.5-9.7,4.8-19.7,7.7-29.3C677,272.9,692.8,261.5,708.3,261.3z"/>
					<path class="st2" d="M187.5,1c18.3,0,34.8,14.3,37.3,32.4c0.3,2.2,0.8,4.4,0.5,6.5c-1.1,8.9,12.1,15.3,6.2,23.3
						c-4.9,6.7-13.5,10.8-18.1,18.6c-2,3.5-4.3,4.2-7.9,1.4c-11.6-9.1-23.6-8.8-35.2-0.1c-3.8,2.9-6.6,3.1-8.5-1.6
						c-3.9-9.8-19.7-13.1-18.7-22.1c1-8.8,5.8-18.1,7.6-27.9C153.9,14.2,170.7,1,187.5,1z"/>
					<path class="st1" d="M838.1,261.3c18.8-0.4,35.7,14.7,37.9,34.3c0.9,7.8,2,15.2,7.1,21.5c2.8,3.4,2.3,5.8-1.5,7.9
						c-7.2,3.9-13,9.5-17.1,16.6c-2.4,4.1-4.8,4.5-8.8,1.7c-11.4-8.1-23.2-8.1-34.5,0.1c-4.1,3-6.5,2.1-8.7-1.9
						c-0.2-0.3-0.5-0.6-0.6-0.9c-3.2-10.1-20.6-11.7-18.1-21.4c2.4-9.1,6.2-18.1,8-27.8C805.3,274.2,821.1,261.6,838.1,261.3z"/>
					<path class="st1" d="M317.3,261.3c16.7-0.1,32.7,12.3,37.1,29.1c2.5,9.5,1.9,19.8,8.6,28c1.7,2,1,4.1-1.2,5.6
						c-1.5,1.1-3.3,1.8-4.5,3.1c-9.8,11.5-19.2,21.5-36.5,11c-5.4-3.3-13.8-0.6-19.5,4.3c-4.3,3.6-8.4,3.8-10.2-1.9
						c-3.3-10-21.3-12-17-23.1c3.9-10.1,4.8-20.5,8.1-30.4C287,273,302.7,261.4,317.3,261.3z"/>
					<g>
						<defs>
							<path id="SVGID_3_" d="M122.6,196.7c17.6,0,32.8,11.8,36.6,29c2.2,9.9,6.3,19.7,7.9,29c1.5,8.3-14.7,12-18.5,21.9
								c-2.1,5.4-5.3,4.5-9.3,1.4c-10.5-8.1-21.8-8.2-32.5-0.7c-5,3.5-8.3,4.5-10.7-1.9c-3.6-9.7-20.9-11.9-17.9-21.6
								c3-9.6,5.5-19.3,8-29.1C90.4,208.3,105.6,196.6,122.6,196.7z"/>
						</defs>
						<clipPath id="SVGID_4_">
							<use xlink:href="#SVGID_3_"  style="overflow:visible;"/>
						</clipPath>
						<g class="st3">
							<path class="st4" d="M125.2,194.7c1.1,0.3,2.3,0.3,3.5,0.4c4.2,0.5,8.3,1.7,12.2,3.3c3.9,1.6,7.5,3.8,10.8,6.4
								c0.2,0.1,0.3,0.3,0.5,0.5c-0.7,0.2-1.4,0.1-2.1,0c-7.2-0.3-14.2,0.5-21,3.3c-4.3,1.8-7.9,4.6-10.9,8.1
								c-3.8,4.5-6.5,9.7-7.8,15.4c-0.6,2.8-1,5.7-0.9,8.6c0,0.4,0,0.8,0,1.2c-0.4-0.1-0.9-0.1-1.3-0.2c-3.9-0.1-7.9,0-11.8,0.8
								c-6.4,1.2-12.3,3.6-17.8,7c-0.9,0.6-1.6,1.3-2.6,1.6c-0.4-1.7-0.6-3.5-0.8-5.3c0-0.2,0.1-0.5-0.2-0.7c0-2.3,0-4.5,0-6.8
								c0.1-0.1,0.1-0.2,0.2-0.3c0.3-3.2,0.8-6.4,1.7-9.5c2.4-8.1,6.6-15.1,12.7-20.9c4.1-3.9,8.7-7,13.9-9.2
								c4-1.7,8.1-2.9,12.4-3.4c1.2-0.1,2.4-0.3,3.6-0.5C121.4,194.7,123.3,194.7,125.2,194.7z"/>
							<path class="st4" d="M76,251.3c1-0.3,1.8-1.1,2.6-1.6c5.5-3.5,11.4-5.9,17.8-7c3.9-0.7,7.8-0.8,11.8-0.8
								c0.4,0,0.9,0.1,1.3,0.2c0.2,5.2,1.7,10,4.6,14.4c2.8,4.4,6.8,7.4,11.5,9.5c4.2,1.9,8.7,2.8,13,4.1c3.3,1,6.6,2,9.3,4.3
								c1.4,1.2,2.5,2.6,3.4,4.1c0.3,0.5,0.2,0.8-0.3,1.2c-2.7,2-5.6,3.8-8.7,5.2c-4.1,1.9-8.4,3.2-12.8,3.9
								c-3.4,0.5-6.8,0.7-10.2,0.4c-7.5-0.5-14.6-2.7-21-6.5c-2.8-1.7-5.4-3.7-7.9-5.9c-3.3-3-6.1-6.4-8.4-10.2
								c-2.6-4.2-4.4-8.7-5.6-13.5C76.2,252.5,76.1,251.9,76,251.3z"/>
							<path class="st4" d="M114.7,228.9c0.6-1.9,1.5-3.6,2.5-5.3c2.3-3.9,5.2-7.4,9.1-9.9c3.7-2.4,7.8-3.7,12.2-4.5
								c3.6-0.6,7.2-0.9,10.8-0.8c2.2,0.1,4.4,0.3,6.7,0.6c0.3,0,0.5,0.1,0.7,0.3c5.8,6.1,9.7,13.3,11.7,21.4
								c1.1,4.3,1.5,8.7,1.3,13.1c-0.3,7.7-2.4,14.9-6.2,21.6c-0.1,0.1-0.1,0.2-0.2,0.2c-0.8-2-1.9-3.9-2.9-5.8
								c-2.5-4.4-5.6-8.4-9-12c-1.8-2-3.8-3.8-5.9-5.5c-2.8-2.3-5.8-4.4-9-6.1c-4.2-2.2-8.5-4.2-13.1-5.5
								C120.5,230,117.6,229.3,114.7,228.9z"/>
							<path class="st4" d="M114.7,228.9c2.9,0.4,5.7,1.1,8.6,1.9c4.6,1.3,8.9,3.2,13.1,5.5c3.2,1.7,6.2,3.8,9,6.1
								c2.1,1.7,4.1,3.5,5.9,5.5c3.5,3.7,6.5,7.6,9,12c1.1,1.9,2.2,3.8,2.9,5.8c-1.2,2.3-2.8,4.4-4.5,6.5c-1.3,1.6-2.7,3.1-4.3,4.5
								c-0.2,0.2-0.4,0.5-0.7,0c-2.3-4.2-5.9-6.6-10.2-8.3c-3.4-1.3-6.9-2.1-10.4-3.1c-3.6-1-7-2.3-10.2-4.4
								c-5.2-3.5-8.4-8.3-9.7-14.4C112.1,240.6,112.6,234.7,114.7,228.9z"/>
						</g>
					</g>
					<path class="st1" d="M169.6-133c-1,0.5-2.7,1.2-4.2,2.2c-7.1,4.7-11.6,12-17.6,17.8c-7.6,7.4-12.6-6.4-21-5
						c-7.5,1.2-15.4,0-21.6,5.7c-3.8,3.4-6.5,2.1-8.7-1.8c-0.4-0.6-1-1.2-1.2-1.8c-2.6-9.8-20-10.7-16.8-21c2.8-8.9,5.2-18,7.4-27.1
						c4.3-17.5,20.4-30.6,37.1-30.3c17.4,0.3,32.5,13,36.5,30.8c2,8.8,1.1,18.4,8.1,25.7C168.3-137.2,168.4-135.9,169.6-133z"/>
					<path class="st1" d="M773.9,66.6c18,0.1,32.3,12,36.6,30.4c2,8.8,1,18.4,8,25.8c2.8,3,0.6,5.3-2.2,7c-7,4.3-12.8,9.8-16.6,17.2
						c-2.4,4.5-4.8,4.3-8.6,1.3c-11.6-9.1-23.6-9.1-35.1,0.2c-4.1,3.3-6.4,2.2-8.5-1.9c-0.7-1.3-2-2.4-2.2-3.8
						c-1.6-9.8-21.7-8.1-14.9-22.1c4.5-9.3,4.5-19.2,7.6-28.5C743.2,76.8,757.4,66.6,773.9,66.6z"/>
					<path class="st1" d="M383.2,196.6c18.9,0.1,35.4,14.6,37.3,33.6c0.8,7.8,1.7,15.3,7,21.5c2.6,3.1,3.1,5.7-1.2,7.8
						c-1.3,0.6-2.4,1.7-3.7,2.4c-7.2,4.3-9.8,13.9-16.1,17.4c-6.1,3.4-12-7.5-20.2-7.4c-7.6,0-14.7,1-20.5,6.2
						c-4.3,3.9-6.9,2.9-9.2-1.8c-0.2-0.3-0.4-0.6-0.5-1c-3.4-9.8-19.6-12.1-18-20.8c1.7-8.9,6.7-17.9,8.2-27.8
						C349.1,209.4,365.6,196.6,383.2,196.6z"/>
					<path class="st1" d="M448.5-258.8c19.1,0.2,33.8,13.4,37.4,33.7c0.7,4-0.3,9.1,1.9,11.8c9.6,12,3.6,19-6.7,25.4
						c-1.5,0.9-2.9,2.5-3.6,4.1c-4,9.3-8.3,9.8-16.9,3.6c-8.8-6.3-19.8-5.2-28.7,2.1c-5,4.1-7.8,4-10.8-1.9
						c-3.5-6.6-9-11.5-15.3-15.5c-2.5-1.6-5.8-3.5-2.9-6.7c7.1-7.7,6.2-17.7,8.4-26.8C415.7-247.4,430.2-259,448.5-258.8z"/>
					<path class="st1" d="M643.3-64.1c17.9-0.2,35,14.6,37,32.6c0.9,8.1,2,16,7.2,22.6c3,3.9,2.2,6.6-1.9,8.8
						c-0.6,0.3-1.2,0.9-1.8,1.2c-7.4,4-10.2,13.1-16.6,17c-7.2,4.4-12.9-7.2-21.5-6.1c-6.2,0.8-12.6,0.6-17.7,4.6
						c-5.1,3.9-9.3,4.6-11.8-2.2c-3.4-9.4-20.1-11-17-21c2.9-9.3,5.2-18.6,7.6-28.1C610.9-51.9,626.1-63.8,643.3-64.1z"/>
					<path class="st1" d="M708.6,1c18.5,0,35.4,15.6,37.6,34.8c0.5,4-0.3,9.1,1.8,11.7c8.9,10.9,5.5,18.2-5.5,24.2
						c-0.6,0.3-1.2,0.9-1.5,1.6c-5.9,11.7-12.9,13.2-24.1,5.3c-7.8-5.5-17.2-2.1-24.5,3.6c-5.2,4.1-7.8,3.2-11-2.2
						c-3.7-6.4-9.1-11.4-15.6-15.1c-4.2-2.4-4.7-4.9-1.6-8.7c5.1-6.2,6.3-13.6,6.9-21.5C673,16.2,690.2,1,708.6,1z"/>
					<path class="st1" d="M300-4.8c-0.8,1.1-1.4,2.6-2.5,3.2c-8.2,4.5-14.6,10.9-19.5,18.9c-2.6,4.3-5.3,1.7-8.2,0
						c-11.3-6.9-22.7-7.8-33.8,0.2c-4.3,3.2-7.1,2.8-9.7-1.7c-0.5-1-1.7-1.8-1.8-2.7c-1.1-10.3-21.5-8.8-15.1-21.8
						c4.7-9.7,4.7-19.7,7.6-29.3c4.4-14.1,19-25,33.7-25.9c14.3-0.9,29.3,8.1,35.7,21.2c3.1,6.4,4.1,13.2,4.6,20.2
						C291.6-15.7,296-10.6,300-4.8z"/>
					<path class="st1" d="M579.1,1c15.4,0.2,30.8,12,35.2,27c0.8,2.8,1.4,5.7,1.8,8.6c2.1,14.8-2.7,31.9-11.5,44.7
						c-3.2,4.6-5.3,4.6-9.5,1.5c-11.4-8.5-23.1-8.3-34.4,0.1c-3.8,2.9-6.4,3-8.7-1.4c-0.2-0.3-0.5-0.6-0.5-0.9
						c-2.5-10.6-21.1-11.8-17.5-22.9c3.2-9.6,5.9-19.2,8.3-29.1C546.2,12.6,562.6,0.7,579.1,1z"/>
					<path class="st1" d="M254.1-194.3c19.6,1.3,34.7,16.1,36.7,35.9c0.4,3.6-0.3,8.4,1.7,10.6c10.6,11.9,3.6,18.4-6.3,24.8
						c-1.8,1.1-3.4,3-4.3,4.9c-3.9,8.2-8.1,8-15.8,3.3c-9.1-5.5-19.9-5.1-29,1.6c-5.2,3.9-8.1,3.1-11.2-2.2
						c-3.5-6.1-8.4-11.1-14.7-14.5c-4.4-2.3-6-4.8-2.3-9.3c5-6.2,6.1-13.7,6.8-21.6C217.2-179.2,236.1-195.5,254.1-194.3z"/>
					<path class="st1" d="M514.1-194.4c17.7,0.3,34.2,15.2,36.3,33.6c0.9,8.1,2,16,7.4,22.5c2.9,3.6,1.8,5.9-1.8,7.8
						c-7,3.7-12.4,9.1-16.2,15.9c-3,5.3-5.9,4.6-10.5,1.5c-10.7-7.1-22.2-7.2-32.7,0.3c-5.2,3.7-7.9,2.5-10.1-2.5
						c-4-9.3-19.8-12.6-18.2-20.7c1.8-8.9,6.2-18,8.1-27.7C479.7-181.6,496.5-194.7,514.1-194.4z"/>
					<path class="st1" d="M643.4-194.4c17.6-0.1,34.9,15.1,36.9,32.9c0.9,8.1,2.1,16,7.2,22.6c3.1,4,1.9,6.5-2.1,8.6
						c-6.7,3.5-11.5,9-15.3,15.4c-2.8,4.8-5.6,5.5-10.5,2.1c-11.1-7.6-22.7-7.5-33.7,0.3c-4.7,3.4-7.5,2.2-9.3-2.4
						c-3.7-9.7-20.4-12.5-17.5-22.2c2.7-9.2,5.2-18.6,7.6-28C611.1-181.9,626.7-194.3,643.4-194.4z"/>
					<path class="st1" d="M448.5,131.1c16.7-0.1,32.5,13.1,36.5,30.8c2,8.8,1.2,18.3,8,25.7c3.3,3.6-0.1,5.9-3,7.7
						c-6.6,4.1-12.2,9.3-15.8,16.3c-2.4,4.6-5,4.1-8.6,1.3c-11.3-8.5-23-8.9-34.3-0.3c-5.1,3.8-7.7,1.9-10.2-2.6
						c-3.3-5.8-8-10.5-13.8-13.8c-4.9-2.8-7.4-5.8-2.7-11.1c5.8-6.5,4.8-15.1,6.6-22.8C415.5,143.9,430.4,131.3,448.5,131.1z"/>
					<path class="st2" d="M317.6,131.1c17.7,0.1,32.8,12.4,37.1,30.1c2.2,9.1,1.6,19,8.6,26.7c2.2,2.4,0.8,4.8-1.7,6.4
						c-1.5,1-3,2.1-4.6,2.9c-7.4,4.1-9.6,14.5-16.3,16.9c-6.3,2.2-12.7-7.1-20.7-7.5c-6.5-0.3-12.7,1.1-17.5,5.1
						c-6.1,5.3-10.3,3.6-12.1-3c-2.6-9.9-21.4-9.6-16.1-21.9c4.1-9.4,4.8-18.9,7.5-28.2C286.3,143.4,302.2,131,317.6,131.1z"/>
					<path class="st1" d="M625-70.5c-1.2,1.7-1.8,3.2-2.9,3.9c-8,4.9-14.2,11.4-19,19.4c-2.6,4.4-5.4,1.7-8.1-0.4
						c-11.1-8.5-22.6-7.8-33.5-0.1c-5.2,3.7-7,2.1-10.1-2.3c-8.5-12.2-12.8-29-10.5-45.2c2.4-17.2,13.1-29.1,29.4-32.9
						c14.2-3.3,29.8,3.3,39.3,16.1C619-99.6,612.8-81.9,625-70.5z"/>
					<path class="st1" d="M317.6,1c18-0.3,33.7,12.8,37.4,31.1c1.7,8.5,1.1,17.7,7.7,24.8c2.6,2.8,1.6,5.3-1.4,7.3
						c-1.5,1-3.5,1.7-4.5,3.1c-9.5,13-19.6,20.5-36.2,9.7c-5.2-3.4-13.2,0.6-18.3,4.8c-5.8,4.8-9.8,3.3-11.5-2.7
						c-2.9-9.9-20.8-10.6-16.5-22.1c3.7-9.8,4.9-19.7,7.9-29.4C286.8,12.5,301.6,1.3,317.6,1z"/>
					<path class="st1" d="M578.5,261.3c19-0.2,35.2,15.3,37.7,36c0.6,4.7-0.3,10.1,2.9,13.7c6.7,7.7,5.5,13.2-3.4,17.7
						c-0.6,0.3-1.1,0.9-1.6,1.4c-7.8,7.2-18,9.8-28.4,8.1c-8.4-1.3-16.9-1.5-23.9,4.6c-3.9,3.4-7.1,3.3-9.7-1.4
						c-0.3-0.6-1-1.2-1.2-1.8c-2.2-10.1-20.6-10.5-16.4-21.9c3.6-9.7,5.3-19.5,7.9-29.2C546.5,273.2,562.6,261.4,578.5,261.3z"/>
					<path class="st1" d="M448.3,261.3c16.6-0.2,32.8,13.3,36.8,30.7c2,8.8,1.3,18.4,7.7,25.9c2.1,2.5,1.2,4.7-1.3,6.5
						c-0.6,0.4-1.3,0.8-1.8,1.2c-13.2,10.9-21.3,13.4-37.7,12.2c-5.5-0.4-11.7-1.5-16,2.2c-8,6.8-12.2,4.7-17.6-3.5
						c-7.9-12.2-10.8-21.5-8.3-37.2C413.7,275.9,428.1,261.6,448.3,261.3z"/>
					<path class="st1" d="M773.8,196.7c18.2,0.1,32.8,12.5,37,31.4c1.8,8.4,0.9,17.7,7.7,24.7c2.8,2.9,0.8,5.2-2,7
						c-7,4.3-12.8,9.8-16.7,17.1c-2.3,4.3-4.7,4.6-8.6,1.6c-11.6-9-23.6-9-35.2,0.1c-4.1,3.2-6.5,2.2-8.5-2c-0.7-1.3-2-2.4-2.2-3.8
						c-1.5-9.8-21.7-7.9-14.7-21.9c4.8-9.6,4.2-20,7.8-29.5C743.8,206.4,757.7,196.6,773.8,196.7z"/>
					<path class="st1" d="M819.5-135.9c-0.1,3.1-1.5,4.2-3.1,5.1c-7.1,4.2-12.8,9.7-16.9,16.9c-2.6,4.6-5.4,3.3-9,1
						c-11.2-7.2-22.8-7.4-33.9,0.1c-4.5,3-7.2,2.4-9.6-2.2c-0.2-0.3-0.5-0.6-0.6-0.9c-3.4-9.4-19.3-11.7-17.6-20
						c1.8-8.7,5.9-17.6,7.7-26.9c3.3-16.9,13.8-27.2,30.5-30.6c15.6-3.2,27.5,3.6,37.4,15.5C814.8-165.3,808.3-147,819.5-135.9z"/>
					<path class="st1" d="M560.2,255.5c-0.9,1.1-1.5,2.5-2.6,3.2c-8,4.9-14.3,11.3-19.2,19.3c-2.2,3.6-4.5,2.6-7.2,0.5
						c-12.1-9-24.3-9.3-36.3,0.2c-3.5,2.8-5.7,2.6-7.7-1.4c-0.7-1.3-1.7-2.5-2.1-3.8c-2.9-9-18.3-10-16.3-19.5
						c1.7-8.1,5.8-16.1,7.1-24.9c2.8-19.3,19.3-32.9,38.3-32.4c19.5,0.5,34.3,14.3,36.3,34.4c0.8,7.5,2.4,14.4,7.1,20.4
						C558.5,252.6,559.2,253.9,560.2,255.5z"/>
					<path class="st1" d="M708.8-258.9c19.5,0.1,35.4,14.5,37.2,34.6c0.7,7.5,1.6,14.5,6.8,20.3c3.3,3.7,2.6,6.1-1.7,8.4
						c-7.3,3.8-13,9.5-16.7,16.9c-2.4,4.7-4.6,4.2-8.4,1.3c-11.2-8.6-23.1-8.7-34.4-0.4c-5.1,3.7-6.9,2.4-10.1-2.2
						c-9.7-14.3-12.5-24.9-10.5-45C673.2-244.8,688.8-259,708.8-258.9z"/>
					<path class="st1" d="M188.5-129c18,0.2,33.7,14.2,36.3,32.2c0.6,4.3,0,9.8,2.3,12.8c10,12.5,2.3,18.4-6.3,27.3
						c-8,8.1-12.5,13.2-23.8,5.5c-7.6-5.2-17.5-3.2-24.6,2.9c-6.3,5.4-9.4,3.7-12-2.8c-3.6-8.8-18-11.1-17.2-19.4
						c0.8-8.2,6.2-16.4,7.3-25.7C152.7-115.4,169.7-129.2,188.5-129z"/>
					<path class="st1" d="M754.7-70.3c-8.4,8.7-16.5,17.1-24.8,25.3c-0.3,0.3-3-1.7-4.4-2.7c-11.2-8-22.7-7.9-33.6-0.2
						c-5,3.5-7.3,2.9-10.1-2.1c-4.5-8.2-16.3-11.7-18.5-19.1c-2-6.6,7.5-14.4,8.1-23.8c1.7-27,27.8-43.4,51.7-32.9
						c12.9,5.7,21.2,15.8,22.9,30c1,8.5,1.8,16.7,7.7,23.5C754.2-71.6,754.6-70.5,754.7-70.3z"/>
					<path class="st1" d="M773.1-64.1c17.4-0.4,33.3,12.9,37.4,31.3c1.9,8.5,1.7,17.6,7.6,24.9c3,3.8,0.4,5.8-2.6,7.9
						c-6.4,4.4-11.9,9.8-15.9,16.4c-2.1,3.5-4.1,4.7-7.8,1.9c-11.7-8.7-23.8-8.6-35.7-0.6c-4.8,3.3-8.1,1.9-9.3-2.6
						c-2.7-10.3-21.6-10.9-16.4-23.8c4-10.1,4.5-20.6,8.1-30.6C743.4-52.7,758.6-63.8,773.1-64.1z"/>
					<path class="st1" d="M448.7-129c19,0.3,34.4,14.5,37.4,35c1.1,7.3,1.5,14.6,6.5,20.5c2.4,2.8,2.1,5.3-1.1,7.2
						c-0.6,0.4-1.2,0.8-1.8,1.2c-7.4,4.5-11,13.1-17.3,17.8c-7.4,5.6-13.1-7.6-22-6.6c-6.7,0.7-13.3,1.4-18.4,5.8
						c-5.2,4.4-7.9,3.1-10.9-2.3c-3.5-6.6-9.1-11.4-15.4-15.3c-2.6-1.6-5.4-3.7-2.6-6.8c7-7.7,6.4-17.6,8.4-26.8
						C415.3-116.7,430.9-129.2,448.7-129z"/>
					<g>
						<defs>
							<path id="SVGID_5_" d="M252.1,196.7c19.5-0.2,35.9,14.2,38.4,33.8c0.4,3.3-0.6,7.4,1.1,9.7c9.3,13,4.8,21.8-7.4,29.2
								c-2.3,1.4-3.8,4.5-5,7.1c-2.5,5.2-5.2,4.7-9.3,1.6c-11.4-8.8-23.1-8.1-34.3,0.2c-3.9,2.9-6.1,2.9-8.6-1.4
								c-4-6.7-9.3-12.3-16.1-16.2c-4.4-2.6-5.7-5-2.1-9.4c5.1-6.2,6.3-13.7,7.1-21.5C217.6,210.8,233.4,196.8,252.1,196.7z"/>
						</defs>
						<clipPath id="SVGID_6_">
							<use xlink:href="#SVGID_5_"  style="overflow:visible;"/>
						</clipPath>
						<g class="st5">
							<path class="st6" d="M245.3,191.2c25,0,45.7,20.6,45.7,45.7c0,24.8-20.6,45.8-45.1,45.9c-25.7,0.1-46.4-20.4-46.5-45.7
								C199.5,211.8,220,191.2,245.3,191.2z"/>
							<path class="st7" d="M284.4,219c-1.7,8.2-5.1,15.2-9.8,21.6c-8.9,11.9-20.6,20.3-33.8,26.9c-1.1,0.6-1.6,0.4-2-0.8
								c-1.6-4.7-2.3-9.5-2.3-14.4c0-1.4,0.8-1.8,1.8-2.4c9.9-5.3,18.9-11.8,25.9-20.8c3.6-4.7,6.3-9.8,7.5-15.6
								c0.3-1.8,1.1-1.9,2.5-1.5c2.3,0.7,4.7,1.3,6.9,2.4C283.3,215.6,284,217.4,284.4,219z"/>
							<path class="st7" d="M210.6,211.1c3.6-4.9,8.1-8.8,13.3-11.8c0.8-0.5,1.6-0.3,2.4,0c14.9,4.6,26.6,13.7,36,25.9
								c0.8,1,0.7,1.6,0,2.6c-2.5,3.2-5.4,6.1-8.4,8.7c-0.6,0.5-1,1.1-2,0.2c-11.5-11.7-25.4-19.7-40.8-25.2
								C210.9,211.5,210.8,211.3,210.6,211.1z"/>
							<path class="st7" d="M209.5,213.6c0.2,0.1,0.5,0.2,0.9,0.4c14.5,5.1,27.3,12.8,38.5,23.3c1.6,1.5,1.6,2.2-0.2,3.5
								c-3.6,2.5-7.3,4.8-11.2,7c-1.2,0.6-1.9,0.5-2.9-0.4c-8.5-7.9-18.5-13.3-29.3-17c-2.3-0.8-2.6-1.8-2-4c1.2-4,2.6-7.8,4.8-11.4
								C208.4,214.4,208.5,213.6,209.5,213.6z"/>
							<path class="st7" d="M288.4,239.5c0.2,2.3-0.6,4.5-1.5,6.6c-5,11.1-13.6,18.7-24.1,24.5c-4.9,2.7-10.1,4.9-15.5,6.6
								c-1.4,0.4-2.2,0.2-3-0.9c-0.8-1.2-1.6-2.4-2.5-3.5c-1.2-1.6-1.2-2.4,0.9-3.4c14-7.1,26.4-16.3,35.5-29.5
								c3.5-5.1,6.1-10.6,8-17c1.4,4,2.1,7.7,2.2,11.4C288.1,236.1,288.1,237.8,288.4,239.5z"/>
							<path class="st7" d="M244.4,280.2c-6.9-0.3-13-1.5-18.5-4.8c-2.4-1.4-3.4-4.4-4.4-7c-3.6-9-3.9-18.4-3.1-27.9
								c0.1-1.5,0.7-1.4,1.8-0.8c4.6,2.7,9,5.7,12.8,9.4c0.6,0.6,1.2,1.1,1.2,2.1C233.7,262.1,236.4,271.8,244.4,280.2z"/>
							<path class="st7" d="M228.3,197.3c10.3-4.6,19.7-4.9,28.8,1.8c4.1,3,8,6.3,11.5,10c1.1,1.1,1.3,2.3,0.9,3.7
								c-0.9,4-2.4,7.7-4.8,11.5C255.3,211.8,243.5,202.5,228.3,197.3z"/>
							<path class="st7" d="M219.6,271.6c-4.1-2.9-7.2-6.7-10.3-10.6c-6.5-8.3-5.7-17-2.3-26.1c0.4-1.1,0.9-1.3,1.8-0.7
								c0.3,0.2,0.6,0.2,0.9,0.4c6.4,2.8,6.3,2.8,5.8,9.7c-0.7,9,0.3,17.9,4,26.2C219.7,270.9,220,271.1,219.6,271.6z"/>
							<path class="st8" d="M248.2,279.8c13-4.6,24.9-11,34.1-21.6C277.6,269.1,262.9,279.5,248.2,279.8z"/>
							<path class="st9" d="M279.3,210.9c-4.1-0.8-8-1.7-10.9-5.4c-2.9-3.8-6.9-6.6-11-9.1C261.4,194.7,277,205.2,279.3,210.9z"/>
							<path class="st10" d="M202.1,233.9c-0.1-0.7-0.3-1.6,0.4-1.8c0.6-0.2,1.4,0.2,2.1,0.5c0.8,0.4,0.5,1.1,0.2,1.7
								c-0.6,1.9-1.2,3.8-1.8,5.7c-1,0.1-0.7-0.7-0.7-1.2C202.2,237.2,202.5,235.5,202.1,233.9z"/>
							<path class="st11" d="M202.1,233.9c1.1,1.9-0.4,4.2,0.9,6.1c0.1,0.4,0.1,0.9-0.4,1c-0.7,0.2-0.5-0.4-0.5-0.7
								C202.1,238.2,202.1,236,202.1,233.9z"/>
							<path class="st12" d="M288.4,239.5c-0.7-1.7-0.7-3.4,0-5.1C288.4,236.1,288.4,237.8,288.4,239.5z"/>
						</g>
					</g>
					<path class="st1" d="M708.2,131.1c18.7-0.3,35.7,15.2,38,34.5c0.5,4-0.4,9.1,1.8,11.7c9.8,11.7,2.7,17.1-5.7,25.4
						c-8.3,8.2-13.2,15.2-25.4,5.9c-7.2-5.5-16.7-2.1-23.6,3.1c-6.3,4.8-9.9,3.2-12.6-2.9c-3.8-8.6-18.1-10.7-17.1-19.2
						c0.8-7.7,7-15.3,7.7-24.4C672.7,146.8,689.8,131.4,708.2,131.1z"/>
					<path class="st1" d="M624.9-200c-1.1,1.4-1.8,2.8-2.9,3.5c-7.8,4.5-13.7,10.9-18.2,18.7c-2.5,4.3-5.1,2.7-8,0.6
						c-11.8-8.8-23.7-8.6-35.3,0.3c-3.5,2.7-5.8,2.6-7.8-1.3c-0.2-0.3-0.4-0.6-0.6-0.9c-3.4-10.2-21.3-12.5-18.3-22.5
						c2.9-9.9,5.8-20,8.4-30.1c6.5-25.4,38.3-34.6,59.5-19C619.6-237.9,611.7-214.7,624.9-200z"/>
					<path class="st1" d="M447.9,1c16.7-0.1,31.9,11.7,36.6,28.2c2.7,9.7,1.2,20.6,8.9,28.9c2.3,2.5,0,4.8-2.3,6.2
						c-7.1,4.2-12.8,9.9-16.8,17c-2.4,4.2-4.8,4.5-8.7,1.6c-11.3-8.5-23.1-8.7-34.5-0.3c-4.5,3.3-7.1,2.8-9.4-1.9
						c-0.6-1.3-2-2.4-2.2-3.7c-1.4-9.7-21.9-7.7-14.2-22c5.1-9.5,4-20,7.7-29.5C418.4,11.5,433.2,1.1,447.9,1z"/>
					<path class="st1" d="M643.2,196.7c19.3-0.2,35.4,14.2,37.3,33.2c0.4,4-0.1,9,2.1,11.7c10,12.4,4.1,20-6.8,26.8
						c-0.6,0.4-1.2,1-1.5,1.6c-5,10.4-11,10.9-20.8,4.6c-8-5.2-18-4-25.7,2.6c-5.3,4.5-8.9,4.7-11.6-1.9
						c-3.8-9.1-18.6-12.1-17.7-20.3c1-8.5,6-17.3,7.4-26.9C608.9,209.8,625,196.8,643.2,196.7z"/>
					<path class="st1" d="M382.9,66.6c19.5-0.1,35.2,13.7,37.7,33.1c0.5,3.6,1.7,7.4,1,10.9c-1.5,7.2,16.4,12.3,2.2,20.5
						c-7.3,4.2-11.6,11-16.5,17.4c-2.6,3.4-5.3,0.3-7.6-1.1c-11-7.1-22.2-7.5-32.9,0.1c-5.5,3.9-8.9,2.6-11-2.9
						c-3.6-9.4-18.8-11.2-17.9-20c0.8-8,7.1-15.9,8-25.5C347.7,80.2,363.8,66.7,382.9,66.6z"/>
					<path class="st2" d="M123,66.6c17.9,0.1,32.7,12.4,36.6,30.4c1.1,5.3,0.2,12,3,16c8.2,11.2,2.4,16.1-5.6,24.1
						c-8.4,8.5-13.1,15.2-26,6.5c-7-4.7-17.3-2.7-24.6,3.7c-4.2,3.6-6.8,4.6-10-1.2c-3.8-6.8-9.6-12-16.1-16.3
						c-2.6-1.7-5.6-3.5-2.8-6.8c6.9-7.8,6.4-17.6,8.4-26.8C89.7,78.5,104.8,66.5,123,66.6z"/>
					<path class="st1" d="M169.4-4.5c-1.5,1.6-2.5,3.2-4,4.1c-7,4.3-12.7,9.9-16.9,17c-2.2,3.8-4.6,3.7-8.1,1.4
						c-11.9-7.9-23.9-8.7-35.6,0.3c-3.5,2.7-6,1.6-8-1.8c-0.4-0.6-1-1.2-1.2-1.9C93,4.5,75.3,3.3,78.7-7.4c3.1-9.7,5.1-19.6,8-29.3
						c4.2-14.1,14.1-23,28.4-26.3c14.3-3.3,25.8,2.3,35.8,12C164.1-38.3,156.8-17.7,169.4-4.5z"/>
					<path class="st1" d="M383.5-63.8c18.8,0.2,35.1,14.8,37,33.9c0.8,7.8,1.9,15.2,7.1,21.4c2.7,3.3,2.5,5.9-1.4,7.9
						c-7.3,3.9-12.8,9.7-17,16.7c-2.4,3.9-4.8,4.6-8.8,1.7c-11.4-8.1-23.2-8.1-34.6-0.1c-4,2.8-6.5,2.5-8.9-1.5
						c-0.4-0.6-1-1.2-1.2-1.8C353,4.4,335.2,3,338.8-7.2c3.4-9.6,5.6-19.3,8.1-29C351.2-52.7,366.6-64.1,383.5-63.8z"/>
					<path class="st1" d="M318.6-258.8c17.5,0.2,32.4,12.4,36.1,29.7c2,9.2,1.4,19.1,8.4,26.8c2.9,3.2,0.1,5.2-2.6,6.8
						c-7,4.3-12.8,9.8-16.9,16.9c-2.6,4.6-5,3.9-8.6,1.1c-11.3-8.6-23-8.7-34.1,0.2c-4.5,3.6-6.8,2.6-9.3-2
						c-3.5-6.6-8.7-11.8-15.1-15.6c-4.2-2.5-6-4.9-2.4-9.4c4.8-6,5.2-13.4,6.3-20.7C283.5-245.6,299-259.1,318.6-258.8z"/>
					<path class="st1" d="M512.8-63.8c18.9-0.3,35.3,13.9,37.5,33.1c0.9,8.1,2,16,7.4,22.5c2.9,3.5,1.8,5.9-1.8,7.8
						c-6.9,3.7-12.3,9.1-16.1,16c-2.4,4.4-5,5.5-9.5,2.1c-11-8.2-22.7-7.7-33.7-0.4c-5.1,3.4-7.9,2.8-10.1-2.3
						c-4-9.3-20.1-12.8-18.4-20.4c2-8.9,6.4-17.9,8.3-27.6C480-51.3,495.1-63.6,512.8-63.8z"/>
					<path class="st1" d="M885.9,62.6c-0.8,0.3-2.3,0.7-3.6,1.5c-1.6,0.9-3.4,1.7-4.6,3c-9.9,11-18.8,22.6-36.1,10
						c-5.2-3.8-13.7,0.5-19.2,5.1c-5.1,4.3-8.6,3.6-10.7-2.3c-3.3-9.7-20.6-11.1-17.3-21.7c3-9.3,5.5-18.6,7.8-28.1
						c4.1-17.3,20.9-29.9,37.9-29c17.2,0.8,32.9,14.6,35.5,32.1c1.3,8.7,1.8,17.5,7.9,24.7C884.2,58.5,884.5,59.6,885.9,62.6z"/>
					<path class="st1" d="M578.2,131.1c19.1-0.3,35.3,14.7,37.9,35.8c0.9,7,1.7,13.8,6.3,19.5c2.6,3.2,2.3,5.8-1.3,8.2
						c-6.7,4.6-12.6,10.1-16.7,17.2c-2.5,4.5-5.2,3.9-8.8,1.2c-11.3-8.6-23-8.6-34.3-0.1c-4.4,3.3-7.1,2.8-9.5-1.9
						c-0.3-0.7-0.9-1.2-1.1-1.9c-2.4-9.8-20.1-10.2-16.4-21.2c3.1-9.3,5.6-18.6,7.7-28.2C545.5,144,562,131.4,578.2,131.1z"/>
					<path class="st1" d="M885-71.2c0.3,4.2-2.5,5.1-4.6,6.3c-6.5,3.8-11.8,8.8-15.2,15.4c-2.9,5.6-5.4,4.8-10.1,1.5
						c-10.6-7.6-22-8-32.6,0c-5.1,3.8-8.5,4.1-10.8-2.1c-3.6-9.7-19.7-12.3-18.1-20.6c1.5-8.4,6.6-17.1,8-26.6
						c2.3-15.6,14.9-27.9,30.2-31.1c13.7-2.8,28.8,4,37.5,15.4C879.1-100.1,872.4-81.7,885-71.2z"/>
					<path class="st2" d="M187.2,261.3c18.9-0.2,36,15.2,37.8,34.4c0.4,4.8,0,10.2,3,13.8c8.4,10.1,3.9,15.1-5.2,21.5
						c-11.1,7.9-14.7,9.8-27.6,7.4c-8.3-1.5-17-1.9-24,4.2c-4.7,4-7.8,3.1-10.1-2.1c-4-9.1-19.4-12.6-17.6-21.3
						c1.8-8.6,5.6-17.5,7.4-26.8C154.4,274.5,170.1,261.5,187.2,261.3z"/>
					<path class="st1" d="M885.4,191c-1.5,1.3-2.7,2.7-4.1,3.6c-6.9,4.4-12.7,9.9-16.8,17c-2.4,4.2-4.9,4.6-8.7,1.6
						c-11.3-8.7-22.9-8.9-34.2-0.1c-4.5,3.5-6.9,2.2-9.4-2.1c-3.9-6.7-9.4-12.1-16.1-16.1c-4.3-2.5-4.4-5-1.4-8.6
						c4.6-5.6,5.8-12.3,6.4-19.4c1.8-20.2,18.8-35.9,37.8-35.6c18.8,0.3,35.1,15.5,37.1,35.3c0.8,7.4,2.1,14.4,6.8,20.5
						C883.7,188,884.4,189.3,885.4,191z"/>
					<path class="st1" d="M885.7-200.1c-0.9,1.2-1.6,2.4-2.5,3.3c-0.8,0.7-1.8,1.2-2.8,1.7c-8.1,4.3-11.2,14.2-17.9,18.5
						c-6.6,4.2-13.1-7.8-22.1-7c-6.8,0.6-13.3,1.3-18.4,5.8c-4.4,3.9-7.3,4.1-9.9-1.6c-3.3-7.2-9.1-12.4-16-16.1
						c-4.4-2.4-4.8-4.7-1.7-8.4c5-5.8,6-13,6.8-20.4c2.3-20.8,18.4-34.9,38.5-34.4c19.3,0.5,34.8,15.3,36.4,35.5
						c0.6,7.1,2,13.7,6.8,19.2C883.9-203,884.6-201.7,885.7-200.1z"/>
					<path class="st1" d="M513.4,66.6c19.5,0.1,34.9,13.9,37,33.5c0.6,5.9,0.6,12.3,4.4,16.7c6.8,8.1,3.6,12.2-4.1,16.5
						c-6.7,3.6-8.3,13.5-14.2,16c-6.1,2.7-11.8-6.8-19.4-7.2c-7.6-0.4-14.7,0.6-20.8,5.3c-4.2,3.2-7.2,2.9-9.7-1.7
						c-0.2-0.3-0.5-0.6-0.6-0.9c-2.9-9.8-19.8-11.2-17-21.3c2.5-9.3,5.4-18.6,7.7-28.1C481.1,77.6,495.7,66.5,513.4,66.6z"/>
					<g>
						<defs>
							<path id="SVGID_7_" d="M187,131.1c18.5-0.3,35.4,14.5,37.9,33.1c0.7,5,0.3,11.3,3.1,14.8c8.4,10.6,2,14.6-5.2,22.2
								c-8.9,9.5-14.9,16.3-28.3,6.9c-7.3-5.1-16.5-1-23.4,4.5c-4.7,3.7-7.8,3.4-10.1-2c-4-9.2-19.3-12.5-17.7-21.4
								c1.6-8.6,5.6-17.6,7.5-26.9C154.5,144.2,169.8,131.4,187,131.1z"/>
						</defs>
						<clipPath id="SVGID_8_">
							<use xlink:href="#SVGID_7_"  style="overflow:visible;"/>
						</clipPath>
						<g class="st13">
							<g id="Layer_2_1_">
								<circle class="st14" cx="186.5" cy="175.6" r="47.7"/>
							</g>
							<g id="Layer_3_1_">
								<path class="st6" d="M152.8,183.8c0-48.3,27.1-55.5,27.7-55.4l0,0v0l3.4-0.4c0,0-4.7,1.5-7.2,3l0,0c-2.5,1.5-5.8,4-9.1,7.9
									l0,0c-6.6,7.9-13.1,21.6-13.1,45.3l0,0c0,17.5,8.8,28.8,13.3,33.3l0,0c1.5,1.5,5.5,3.9,5.5,3.9l0,0l-5-1.8
									C168.2,219.6,152.8,209.3,152.8,183.8L152.8,183.8z"/>
							</g>
							<g id="Layer_4_1_">
								<path class="st6" d="M153.5,173.2c-8.9-1-10.2-7.9-10.2-13.1l0-2.4c0-2.2,0.1-2.5,0.1-2.5l1.3-2.6c0,0-0.4,2.6-0.4,5.1l0,0
									c0,5.1,1.2,12.1,9.3,13l0,0c0.9,0.1,1.8,0.1,2.6,0.1l0,0c6-0.5,13.8-4.8,23.5-12.2l0,0c9.6-7.4,25.7-16.9,37.8-17l0,0
									c1.1,0,2.1,0.3,2.9,0.6l0,0l1.3,1.5c-0.6-0.3-2.6-0.4-3.6-0.4l0,0c-8.4,0-27.6,10.2-37,17.5l0,0
									c-9.7,7.4-16.1,12.6-25.1,12.6l0,0C155.3,173.4,154.4,173.3,153.5,173.2L153.5,173.2z"/>
								<path class="st6" d="M191.7,214.1c-5.6-1.5-12.5-5.7-19.2-8.9l0,0c-6.5-3.1-13.1-5.5-18.4-6.3l0,0c-0.7-0.1-1.4-0.1-2-0.1
									l0,0c-3.7,0-5.1,1.5-5.5,2.1l0,0c-0.1,0.2-0.2,0.4-0.2,0.4l-0.6-1c0.1-0.2,1-3.7,6.3-3.6l0,0c0.6,0,1.3,0,2.1,0.1l0,0
									c6.4,0.8,12.6,3.5,19.1,6.6l0,0c6.8,3.3,13.4,7.3,18.8,8.8l0,0c5.5,1.5,6.9,2.3,10.9,2.3l0,0c7.6,0,13.2-1.6,13.2-1.6l0,0
									l-0.9,0.7c0,0-6.4,2.4-12.4,2.2l0,0C198.8,215.9,197.2,215.6,191.7,214.1L191.7,214.1z"/>
							</g>
							<g id="Layer_5_1_">
								<path class="st6" d="M153.5,187.1c-2.8-0.4-7.3-1.5-10.8-2.8l0,0c-3.5-1.3-3.4-2-3.4-2s-0.3-1.2-0.4-3.6c0,0,1.1,1,1.8,1.4
									l0,0c0.5,0.4,1.6,0.9,3.1,1.5l-0.1-0.1c3.2,1.2,7.6,2.3,10.2,2.7l0,0c4.5,0.7,11.9,1.2,21.5,1.2l0,0c1,0,2.1,0,3.2,0l0,0
									c11-0.1,28.1-1.5,38.7-4.1l0,0c9.3-2.2,14.4-5.2,15.4-5.8l0,0c0.1-0.1,1.5-0.8,1.5-0.8l0,0c0.5-0.2,0.4,2.9-0.1,3.2l0,0
									c-0.1,0.1-5.2,3.6-16.1,6.3l0,0c-11,2.6-28.1,4-39.4,4.2l0,0c-1.1,0-2.1,0-3.2,0l0,0C165.7,188.3,158.2,187.8,153.5,187.1
									L153.5,187.1z"/>
							</g>
						</g>
					</g>
					<path class="st1" d="M187.1-258.9c20.1-0.2,35.4,13.6,37.9,33.8c0.6,4.7,0.4,10.5,3.1,13.7c8.7,10.2,4.2,16.2-5.1,21.5
						c-0.6,0.4-1.2,0.9-1.6,1.5c-6.3,9.7-12.1,16.4-24.9,6.6c-6.4-4.9-16.7-3.2-23.7,2.8c-6.3,5.4-10.4,4-12.9-2.9
						c-3.2-9.1-19.2-10.5-16.2-20.2c2.8-9,5.2-17.9,7.2-27.1C154.7-246.5,170-258.7,187.1-258.9z"/>
					<path class="st1" d="M643.9,66.6c19.5,0.1,34.9,14.1,36.6,33.7c0.5,5.2,0.3,10.9,3.5,14.8c6.8,8.5,6.1,14.4-3.8,19.1
						c-0.6,0.3-1.2,0.9-1.6,1.5c-7,9.9-13.5,17.2-27.4,7.7c-6.9-4.8-17.5-1.9-24.7,4.2c-4.9,4.2-7.4,3.2-9.7-2.1
						c-0.1-0.3-0.4-0.6-0.6-0.9c-8.6-12.5-12.8-30.5-10.5-45.1C608.7,80.3,624.8,66.6,643.9,66.6z"/>
					<path class="st2" d="M298.9,125.3c-0.7,1.1-1,2.2-1.8,3c-1,1-2.4,1.7-3.5,2.6c-9.4,7.2-26,12-38.4,11.2
						c-6.4-0.4-12.9,0.1-17.7,4.5c-5.6,5.1-8.9,4.7-12.2-2.1c-3.8-7.9-14.3-10.8-17.4-17.4c-3.1-6.7,6.8-13.9,7.6-22.6
						c2.3-24.6,16.6-38.2,38.3-37.8c20.7,0.3,34.8,14.9,37,38.7c0.5,5.3,2,10,4.9,14.3C297,121.4,297.9,123.4,298.9,125.3z"/>
					<path class="st1" d="M468.3,234c0.1,9.5-9.9,19.7-19.8,20c-9.9,0.3-20-9.3-20.3-19.3c-0.3-10.8,9.2-20.4,20.2-20.3
						C458.9,214.5,468.2,223.6,468.3,234z"/>
					<path class="st1" d="M402.9-91.8c0.3,10.3-8.7,19.9-19,20.4c-10.6,0.5-20.6-9.2-20.6-19.9c0-10.3,9.3-19.7,19.6-19.8
						C393.1-111.3,402.6-102.2,402.9-91.8z"/>
					<path class="st1" d="M513.4,58.4c-10.3,0.1-19.8-8.9-20.2-19.2c-0.4-10.7,9.2-20.2,20.3-20.3c10.2,0,19.3,9.3,19.5,19.9
						C533.1,49,523.8,58.3,513.4,58.4z"/>
					<path class="st1" d="M532.9-91.5c0.1,10.3-9.1,19.8-19.4,20c-10.7,0.2-20.5-9.6-20.3-20.3c0.2-10.2,9.8-19.5,20-19.5
						C523.5-111.1,532.8-101.8,532.9-91.5z"/>
					<path class="st1" d="M468.1,103.9c-0.2,10.4-10.8,20.6-20.9,20c-10-0.5-19.4-10.7-19-20.6c0.5-10.9,9.2-19.1,20.2-18.9
						C459.3,84.7,468.3,93.6,468.1,103.9z"/>
					<path class="st1" d="M598.3,104.3c-0.1,9.9-10,19.7-19.9,19.6c-10.4-0.1-19.4-9.1-19.5-19.6c-0.1-11.8,8.4-20.2,20-19.7
						C589.6,84.9,598.5,93.9,598.3,104.3z"/>
					<path class="st1" d="M142.8,38.8c-0.1,10.8-9.9,20.1-20.8,19.7c-10.9-0.4-18.8-9-18.6-20.2c0.2-10.4,9.7-19.7,19.7-19.4
						C133.2,19.2,142.9,29,142.8,38.8z"/>
					<path class="st1" d="M643.1-241.1c10.9-0.2,19.6,8.2,19.7,19.1c0.1,10.6-8.7,20.2-18.8,20.5c-10.5,0.3-20.7-9.6-20.6-20
						C623.5-232,632.5-240.9,643.1-241.1z"/>
					<path class="st1" d="M662.8,38.8c0.2,10.9-8.2,19.6-19.1,19.7c-10.6,0.1-19.8-8.5-20.3-19c-0.5-10.4,9.4-20.5,20-20.6
						C653.5,18.8,662.6,28.2,662.8,38.8z"/>
					<path class="st7" d="M272.9,169.4c-0.1,10-9.7,19-20.3,19c-11,0-19.4-8.5-19.3-19.4c0.1-11.1,9.6-20.4,20.4-19.9
						C263.6,149.5,273,159.5,272.9,169.4z"/>
					<path class="st1" d="M513-201.7c-10.5,0-19.8-9.2-19.8-19.5c0-10.3,9.1-19.6,19.5-19.9c10.4-0.2,20,8.8,20.2,18.9
						C533.2-211.1,524-201.7,513-201.7z"/>
					<path class="st1" d="M142.8-221c-0.2,9.8-10.2,19.4-20.2,19.4c-10.5,0-19.7-10-19.2-21c0.5-11,9.3-19.1,20.2-18.6
						C133.9-240.7,143-231.2,142.8-221z"/>
					<path class="st1" d="M402.9,39c-0.2,10.3-9.4,19.4-19.8,19.5c-10.8,0-20.3-9.8-19.8-20.5c0.4-10.4,9.9-19.2,20.4-18.9
						C394.2,19.4,403.1,28.6,402.9,39z"/>
					<path class="st1" d="M662.9-91.5c0.1,10.3-8.9,19.7-19.2,20c-10.6,0.4-20.5-9.6-20.2-20.3c0.3-10.4,9.8-19.6,20-19.4
						C653.7-111,662.8-101.8,662.9-91.5z"/>
					<path class="st1" d="M905.2,19c10.1,1,19.4,11.5,18.5,21c-1,11-11.1,19.5-21.9,18.5C890.6,57.3,883,47.5,884.4,36
						C885.6,26.3,895.7,18.1,905.2,19z"/>
					<path class="st1" d="M923.8-221.8c0.3,9.4-9.6,19.7-19.4,20.2c-10,0.5-19.7-8.7-20.1-19c-0.4-11.2,7.4-19.9,18.3-20.5
						C913.6-241.7,923.4-232.7,923.8-221.8z"/>
					<path class="st2" d="M207.3,233.9c-0.1,10.5-9.1,19.9-19.2,20c-11.1,0.1-20.5-9.3-20.2-20.1c0.3-10.5,9.4-19.5,19.8-19.4
						C198.1,214.5,207.4,223.7,207.3,233.9z"/>
					<path class="st1" d="M382.7-201.7c-10.5-0.2-19.6-9.4-19.5-19.7c0.1-10.7,10-20.1,20.7-19.6c10.4,0.5,19.2,10,18.9,20.3
						C402.6-210.3,393.2-201.5,382.7-201.7z"/>
					<path class="st1" d="M337.3,234.2c-0.1,10.4-9.3,19.8-19.4,19.7c-10.1-0.1-19.9-9.6-20.1-19.5c-0.2-10.3,9-19.8,19.3-20.1
						C328.6,214.2,337.4,222.8,337.3,234.2z"/>
					<path class="st1" d="M688.8,233.4c0.4-10.4,9.9-19.3,20.2-19c10.4,0.3,19.6,9.7,19.3,19.9c-0.3,11-9.9,20-20.8,19.6
						C697.4,253.5,688.4,243.8,688.8,233.4z"/>
					<path class="st1" d="M272.7-91.1c-0.2,10.4-9.4,19.6-19.7,19.6c-10.7,0-20.1-9.9-19.7-20.7c0.4-10.4,9.9-19.3,20.2-19.1
						C263.9-110.9,272.9-101.4,272.7-91.1z"/>
					<path class="st1" d="M839.1,253.8c-10.4,0.3-19.9-8.6-20.3-19c-0.4-10.2,8.5-19.9,18.9-20.4c10.6-0.6,20.7,8.9,20.8,19.5
						C858.6,244.3,849.5,253.5,839.1,253.8z"/>
					<path class="st1" d="M447.7-176.4c9.9-0.2,19.9,9.2,20.4,19.2c0.5,10.7-8.8,20.1-20.1,20c-10.9,0-19.5-8.4-19.7-19.3
						C428-166.4,437.6-176.2,447.7-176.4z"/>
					<path class="st1" d="M447.7-45.6c10.8-0.2,20.1,8.3,20.4,18.7c0.3,10.3-9.7,20.7-20.1,20.6c-10.1,0-19.8-9.7-19.7-19.7
						C428.4-36.8,436.9-45.4,447.7-45.6z"/>
					<path class="st4" d="M142.8,168.6c0.2,10.8-9.3,19.9-20.5,19.8c-11.1-0.1-19-8.2-19-19.6c0-10.6,8.9-19.7,19.2-19.7
						C132.4,149.2,142.6,159,142.8,168.6z"/>
					<path class="st1" d="M402.9,168.3c0.2,10.9-9.1,20.1-20.2,20.1c-10.3,0-19.4-9.3-19.4-19.7c0-10.2,9.3-19.6,19.6-19.7
						C393.1,148.9,402.7,158.1,402.9,168.3z"/>
					<path class="st1" d="M493.3,167.7c0.9-10.2,11.2-19.3,20.8-18.6c11,0.8,19.6,10.7,18.7,21.6c-0.9,10.5-10.5,18.5-21.1,17.6
						C501.2,187.4,492.4,177.6,493.3,167.7z"/>
					<path class="st1" d="M187.9-6.3c-9.8,0-19.8-9.8-20.1-19.6c-0.3-10.4,9.6-20,20.4-19.7c11.2,0.3,19.2,8.5,19.1,19.5
						C207.2-15.5,198.1-6.3,187.9-6.3z"/>
					<path class="st1" d="M792.8-90.9c-0.2,10.5-9.2,19.4-19.6,19.4c-10.1,0-19.4-9.5-19.4-19.9c0-10.4,9.2-19.8,19.4-19.9
						C784.5-111.2,793-102.4,792.8-90.9z"/>
					<path class="st1" d="M598.3,234.3c-0.2,10.4-10.5,20.1-21,19.6c-10.2-0.5-18.8-10.1-18.5-20.6c0.4-10.3,9.7-19.2,20.1-19
						C589.3,214.6,598.5,224,598.3,234.3z"/>
					<path class="st1" d="M317.8-176.4c10.3-0.2,19.4,8.9,19.5,19.5c0.1,11.5-7.4,19.4-18.8,19.8c-10.7,0.4-20-7.9-20.5-18.4
						C297.6-165.9,307.4-176.2,317.8-176.4z"/>
					<path class="st1" d="M579-137.2c-11.5,0.2-19.7-7.3-20.1-18.4c-0.4-11.2,8.7-20.8,19.4-20.8c9.7,0,19.8,9.9,20.1,19.6
						C598.7-146.8,589.3-137.4,579-137.2z"/>
					<path class="st1" d="M728.4-156.4c0,10.1-9.4,19.2-19.8,19.2c-11.2,0-19.7-8.1-19.8-18.9c-0.1-10.6,8.6-20,18.9-20.3
						C718-176.7,728.4-166.7,728.4-156.4z"/>
					<path class="st1" d="M402.9,299.2c0,10.4-9.1,19.1-19.9,19.1c-11.1,0.1-19.7-8.1-19.9-18.9c-0.2-10.8,9.5-20.3,20.3-20.1
						C393.7,279.7,403,289.1,402.9,299.2z"/>
					<path class="st1" d="M792.8,299c0.1,11.4-7.5,19.1-19,19.4c-10.7,0.2-19.9-8.2-20.2-18.7c-0.3-10.4,9.8-20.7,20-20.6
						C784,279.3,792.8,288.4,792.8,299z"/>
					<path class="st1" d="M579.7-45.6C590-45,599.2-35,598.4-25.2c-0.8,9.8-11.2,19.3-20.8,18.9c-10.8-0.5-19.4-10.4-18.6-21.6
						C559.7-38.8,568.4-46.2,579.7-45.6z"/>
					<path class="st1" d="M252.2,18.9c10.4-0.2,20.5,9.5,20.7,20c0.2,10-9.3,19.5-19.7,19.5c-10.5,0.1-19.8-9-19.9-19.2
						C233.2,28.7,242.1,19.1,252.2,18.9z"/>
					<path class="st1" d="M728.4-26.8c0.3,10.3-9.7,20.5-20.1,20.5c-10.2,0-19.3-9.2-19.5-19.8c-0.1-10.9,8.1-19.3,19.3-19.5
						C718.5-45.8,728-37,728.4-26.8z"/>
					<path class="st14" d="M188,84.5c10.7,0,19.4,8.8,19.3,19.5c-0.1,10.6-8.9,19.7-19.3,19.9c-9.9,0.2-19.8-9.3-20.1-19.3
						C167.6,93.7,176.9,84.4,188,84.5z"/>
					<path class="st1" d="M337.3,104c0,10.5-8.7,19.6-19.2,19.9c-10,0.3-20.3-10.3-20.1-20.6c0.2-10.4,9.4-18.9,20.2-18.8
						C329.4,84.5,337.2,92.6,337.3,104z"/>
					<path class="st1" d="M207.3-156.3c0,11.1-8.1,19-19.4,19.1c-10.4,0.1-20-8.9-20.1-18.9c-0.1-10.2,10.3-20.5,20.5-20.3
						C198.5-176.2,207.3-166.9,207.3-156.3z"/>
					<path class="st1" d="M337.3-25.5C337.1-15,327.8-6,317.6-6.3c-10-0.3-19.5-10.1-19.5-20c0-10.3,9.1-19.3,19.7-19.3
						C329.5-45.6,337.5-37.3,337.3-25.5z"/>
					<path class="st1" d="M753.8-222c0.4-10.9,9.3-19.3,20.2-19.1c11.5,0.2,19.5,9.2,18.8,21.1c-0.6,10-10,18.8-19.7,18.4
						C763-202,753.5-212.1,753.8-222z"/>
					<path class="st1" d="M272.8-221.5c-0.2,10.3-9.8,19.8-19.9,19.8c-11,0-20.1-9.7-19.6-20.9c0.4-9.8,9.6-18.5,19.7-18.5
						C263.4-241.2,273.1-231.7,272.8-221.5z"/>
					<path class="st1" d="M142.8-90.5c-0.6,10-10.6,19.4-20.5,19c-10.7-0.4-19.6-10.3-18.9-21.2c0.6-10.2,10.5-19.1,20.6-18.5
						C133.8-110.6,143.3-100.2,142.8-90.5z"/>
					<path class="st1" d="M838.5,123.9c-10.4-0.1-19.9-9.6-19.7-19.9c0.2-10.4,9.5-19.5,20-19.5c10.5,0.1,19.7,9.3,19.7,19.7
						C858.4,114.5,848.8,123.9,838.5,123.9z"/>
					<path class="st1" d="M923.6,168.9c0.2,10.4-8.9,19.4-19.8,19.5c-11.2,0.2-19.4-7.9-19.6-19.3c-0.1-10.7,8.8-20,19.2-20
						C913.6,149.1,923.4,158.8,923.6,168.9z"/>
					<path class="st1" d="M532.9,299.2c0,11-8.1,19.1-19.4,19.2c-10.4,0.1-20-8.7-20.3-18.8c-0.3-10.2,10.1-20.5,20.4-20.2
						C524.4,279.7,532.9,288.5,532.9,299.2z"/>
					<path class="st1" d="M272.9,298.8c0.3,10.1-9.1,19.5-19.7,19.6c-11.5,0.1-19.7-7.8-19.9-18.9c-0.1-10.9,8.3-19.7,19.2-20
						C262.4,279.1,272.6,288.8,272.9,298.8z"/>
					<path class="st1" d="M923.8-91.1c-0.2,10-10,19.7-19.9,19.6c-10.6-0.1-20-9.9-19.6-20.7c0.4-10.2,9.9-19.3,20.1-19.1
						C914.3-111,924-101,923.8-91.1z"/>
					<path class="st1" d="M773.7,18.9c10.2,0.1,19.2,9.6,19.1,20.2c-0.1,11.4-8.3,19.5-19.4,19.4c-10.8-0.1-19.5-8.9-19.6-19.8
						C753.8,28.8,763.8,18.8,773.7,18.9z"/>
					<path class="st1" d="M728.4,103.7c0,10.1-9.4,19.9-19.3,20.2c-10.6,0.3-20.3-9.3-20.3-20.1c0-10.4,9.3-19.4,19.7-19.2
						C719.1,84.6,728.4,93.6,728.4,103.7z"/>
					<path class="st1" d="M643.7,149.2c10.4,0,19.2,9.3,19.2,20.1c-0.1,11.2-8.5,19.3-19.7,19.1c-10.9-0.2-19.8-9.1-19.7-19.7
						C623.5,159,633.7,149.1,643.7,149.2z"/>
					<path class="st1" d="M662.8,299.4c-0.1,11.2-8.3,19.1-19.8,19c-10.7-0.1-19.7-9.2-19.4-19.6c0.3-10.1,10.2-19.8,20.1-19.6
						C654.1,279.3,662.9,288.7,662.8,299.4z"/>
					<path class="st1" d="M923.7,299.3c0,10.4-9.3,19.2-20,19.1c-11.4-0.1-19.4-8.3-19.3-19.5c0.1-10.7,9.3-19.9,19.6-19.7
						C914,279.3,923.7,289.3,923.7,299.3z"/>
					<path class="st1" d="M838.4-45.6c10.4-0.1,19.8,9.1,20,19.4c0.2,10.1-9.6,20-19.6,19.9c-10.4-0.1-20-9.5-20-19.6
						C818.8-36.2,828.1-45.5,838.4-45.6z"/>
					<path class="st1" d="M858.4-156.8c0,10.3-9.2,19.6-19.6,19.7c-10.4,0.1-19.8-8.9-20.1-19.2c-0.2-10,9.2-19.6,19.7-19.9
						C848.4-176.7,858.4-167,858.4-156.8z"/>
					<path class="st1" d="M774,188.4c-10.8,0.2-20.1-8.5-20.4-19c-0.3-9.9,9.3-19.9,19.5-20.2c10.4-0.4,19.6,8.7,19.8,19.3
						C793,180,785.2,188.2,774,188.4z"/>
					<path class="st1" d="M122.5,318.4c-11.5-0.2-19.3-8.2-19.1-19.6c0.2-10.7,9.3-19.8,19.7-19.6c10,0.2,19.7,10.2,19.6,20.2
						C142.5,309.8,133.2,318.6,122.5,318.4z"/>
				</g>
			</g>
		</g>
		<path class="st2" d="M297,163l-2,30.5c-0.1,1.7,0.9,3,2.1,2.6l38.7-12.8c1.8-0.6,7.3-1.9,0.3-4.9l-36.7-17.7
			C298.3,160.2,297.1,161.3,297,163z"/>
	</g>
	<g>
		<g>
			<path class="st15" d="M372.9,122.8c0.2-2,0.7-3.9,1.5-5.5c0.8-1.7,1.9-3.1,3.4-4.2c1.4-1.1,2.9-2,4.6-2.6c1.6-0.6,3.4-1,5.1-1.1
				c0.1,0,0.2,0,0.4,0c0.2,0,0.4,0,0.5,0c1.5,0.1,3,0.4,4.5,1c1.5,0.6,2.9,1.3,4.3,2.4c1.4,1,2.6,2.3,3.6,3.8c1,1.5,1.9,3.3,2.6,5.3
				l25.1,71.6l23.7-70.6c0.6-2,1.4-3.9,2.3-5.5c0.9-1.7,2.1-3,3.5-4c1.4-1.1,2.8-2,4.2-2.7c1.4-0.7,2.9-1,4.4-1.1c0.1,0,0.2,0,0.3,0
				c0.1,0,0.1,0,0.3-0.2c0.1,0,0.2,0,0.4,0c0.1,0,0.2,0,0.4,0c0.1,0,0.2,0,0.4,0c1.8,0,3.4,0.3,5,0.8c1.6,0.5,3.1,1.3,4.5,2.4
				c1.4,1,2.6,2.2,3.4,3.6c0.9,1.4,1.4,2.9,1.5,4.6l14,96.6h-18.2L467.4,130l-27.7,80.2c-0.4,1.4-0.9,2.7-1.6,3.7
				c-0.7,1.1-1.6,1.9-2.6,2.5c-1.1,0.6-2.1,1.1-3.2,1.4c-1.1,0.3-2.2,0.5-3.4,0.6c-0.1,0-0.2,0-0.4,0c-0.1,0-0.2,0-0.4,0
				c-1.2,0-2.3-0.1-3.4-0.4c-1.1-0.3-2.2-0.6-3.3-1c-1.1-0.6-1.9-1.3-2.6-2.2c-0.6-0.9-1.1-1.9-1.5-3.1L388.1,130L377,217.3h-18
				L372.9,122.8z"/>
			<path class="st15" d="M568.1,154.8c-0.2-0.1-0.5-0.3-0.7-0.4c-0.2-0.2-0.5-0.4-0.7-0.8c-0.2-0.2-0.5-0.5-0.8-0.9
				c-0.3-0.4-0.6-0.7-1-1.1c-0.4-0.2-0.7-0.5-1.1-0.8c-0.4-0.3-0.8-0.6-1.1-1c-0.5-0.2-0.9-0.5-1.4-0.8c-0.5-0.3-1-0.6-1.6-0.8
				c-1.2-0.6-2.6-1-4.2-1.2c-1.6-0.2-3.4-0.4-5.4-0.4c-4.6,0-8.6,0.8-12.1,2.5c-3.5,1.7-6.4,4.1-8.7,7.2c-2.4,3.2-4.1,6.5-5.3,10.1
				c-1.2,3.5-1.8,7.2-1.8,11c0,0.1,0,0.2,0,0.4v0.2c0,3.4,0.6,6.7,1.9,9.8c1.2,3.1,3,6.1,5.4,8.9c2.4,2.8,5.3,4.9,8.7,6.4
				c3.5,1.4,7.4,2.1,11.9,2.1c4.8,0,8.9-0.6,12.1-1.7c3.2-1.1,5.7-2.8,7.3-5c1.6-2.4,3.1-5.1,4.5-8.3c1.4-3.2,2.6-6.8,3.6-10.8v-0.2
				l0.2-0.2v-0.2l15.4,0.9c0,0.2,0,0.4,0,0.6c0,0.2,0.1,0.3,0.2,0.4c0,0.2,0,0.4,0,0.5c0,0.1,0,0.3,0,0.5c0,0.1,0,0.3,0,0.4
				s0.1,0.3,0.2,0.4c0,0.2,0,0.4,0,0.5c0,0.1,0,0.2,0,0.4c0,0.9-0.1,1.9-0.2,2.9c-0.1,1-0.3,2-0.5,3.1c-0.1,0.5-0.3,1-0.4,1.6
				c-0.2,0.6-0.3,1.1-0.4,1.6c-0.2,0.6-0.4,1.1-0.6,1.7c-0.2,0.5-0.4,1.1-0.6,1.7c-1.4,2.9-3.3,5.8-5.7,8.7
				c-2.4,2.8-5.2,5.5-8.7,7.9c-3.3,2.5-7.2,4.3-11.6,5.6c-4.4,1.2-9.3,1.9-14.8,1.9c-6.2,0-12-1-17.3-2.9
				c-5.3-1.9-10.1-4.9-14.3-8.9c-4.4-4.1-7.6-8.7-9.7-13.9s-3.2-10.8-3.2-17c0-6.6,0.9-12.4,2.6-17.5c1.8-5.1,4.4-9.4,7.9-13.1
				c3.5-3.6,7.2-6.7,11.1-9c3.9-2.4,7.9-4.1,12.2-5.1c0.5-0.1,0.9-0.2,1.3-0.3c0.4-0.1,0.9-0.1,1.3-0.3c0.5,0,0.9,0,1.3-0.1
				c0.4-0.1,0.9-0.1,1.3-0.3c0.9-0.1,1.9-0.2,2.7-0.3c0.9-0.1,1.7-0.1,2.6-0.1c4.8,0,9.3,0.7,13.5,2c4.2,1.4,8,3.4,11.6,6.1
				c3.4,2.7,6.5,5.7,9.3,9c2.8,3.3,5.2,6.8,7.3,10.6l-58.5,31.6l-6.9-12.4L568.1,154.8z"/>
			<path class="st15" d="M670,154.8c-0.2-0.1-0.5-0.3-0.7-0.4c-0.2-0.2-0.5-0.4-0.7-0.8c-0.2-0.2-0.5-0.5-0.8-0.9
				c-0.3-0.4-0.6-0.7-1-1.1c-0.4-0.2-0.7-0.5-1.1-0.8c-0.4-0.3-0.8-0.6-1.1-1c-0.5-0.2-0.9-0.5-1.4-0.8c-0.5-0.3-1-0.6-1.6-0.8
				c-1.2-0.6-2.6-1-4.2-1.2c-1.6-0.2-3.4-0.4-5.4-0.4c-4.6,0-8.6,0.8-12.1,2.5c-3.5,1.7-6.4,4.1-8.7,7.2c-2.4,3.2-4.1,6.5-5.3,10.1
				c-1.2,3.5-1.8,7.2-1.8,11c0,0.1,0,0.2,0,0.4v0.2c0,3.4,0.6,6.7,1.9,9.8c1.2,3.1,3,6.1,5.4,8.9c2.4,2.8,5.3,4.9,8.7,6.4
				c3.5,1.4,7.4,2.1,11.9,2.1c4.8,0,8.9-0.6,12.1-1.7c3.2-1.1,5.7-2.8,7.3-5c1.6-2.4,3.1-5.1,4.5-8.3c1.4-3.2,2.6-6.8,3.6-10.8v-0.2
				l0.2-0.2v-0.2l15.4,0.9c0,0.2,0,0.4,0,0.6c0,0.2,0.1,0.3,0.2,0.4c0,0.2,0,0.4,0,0.5c0,0.1,0,0.3,0,0.5c0,0.1,0,0.3,0,0.4
				s0.1,0.3,0.2,0.4c0,0.2,0,0.4,0,0.5c0,0.1,0,0.2,0,0.4c0,0.9-0.1,1.9-0.2,2.9c-0.1,1-0.3,2-0.5,3.1c-0.1,0.5-0.3,1-0.4,1.6
				c-0.2,0.6-0.3,1.1-0.4,1.6c-0.2,0.6-0.4,1.1-0.6,1.7c-0.2,0.5-0.4,1.1-0.6,1.7c-1.4,2.9-3.3,5.8-5.7,8.7
				c-2.4,2.8-5.2,5.5-8.7,7.9c-3.3,2.5-7.2,4.3-11.6,5.6c-4.4,1.2-9.3,1.9-14.8,1.9c-6.2,0-12-1-17.3-2.9
				c-5.3-1.9-10.1-4.9-14.3-8.9c-4.4-4.1-7.6-8.7-9.7-13.9c-2.1-5.1-3.2-10.8-3.2-17c0-6.6,0.9-12.4,2.6-17.5
				c1.8-5.1,4.4-9.4,7.9-13.1c3.5-3.6,7.2-6.7,11.1-9c3.9-2.4,7.9-4.1,12.2-5.1c0.5-0.1,0.9-0.2,1.3-0.3c0.4-0.1,0.9-0.1,1.3-0.3
				c0.5,0,0.9,0,1.3-0.1c0.4-0.1,0.9-0.1,1.3-0.3c0.9-0.1,1.9-0.2,2.7-0.3c0.9-0.1,1.7-0.1,2.6-0.1c4.8,0,9.3,0.7,13.5,2
				c4.2,1.4,8,3.4,11.6,6.1c3.4,2.7,6.5,5.7,9.3,9c2.8,3.3,5.2,6.8,7.3,10.6l-58.5,31.6l-6.9-12.4L670,154.8z"/>
			<path class="st15" d="M716.3,111.7h16.6v20.8h32.1v15.2h-32.1v43.1c0,1.7,0.1,3.1,0.4,4.4c0.2,1.3,0.6,2.5,1.1,3.7
				c0.5,1.2,1.5,2,3.1,2.6c1.6,0.5,3.8,0.8,6.6,0.8l19.6-0.4v15.4h-20.8c-0.1,0-0.2,0-0.4,0c-0.1,0-0.2,0-0.4,0c-0.1,0-0.2,0-0.3,0
				c-0.1,0-0.1,0.1-0.3,0.2c-0.1,0-0.2,0-0.4,0c-0.1,0-0.2,0-0.4,0c-0.1,0-0.2,0-0.3,0c-0.1,0-0.1,0-0.3,0c-4,0-7.5-0.6-10.4-1.8
				c-2.9-1.2-5.4-3-7.2-5.5c-1.9-2.5-3.3-5.1-4.3-7.9c-1-2.8-1.6-5.8-1.9-8.8c-0.1-0.2-0.2-0.5-0.2-0.8c0-0.3,0-0.6,0-1
				c0-0.2,0-0.5,0-0.8c0-0.3,0-0.6,0-1v-0.4V111.7z"/>
			<path class="st2" d="M775.3,217.3v-66.5c0-11.4,3.6-19.8,10.8-25.3c7.2-5.5,18.3-8.2,33.2-8.2h22.3v23.3h-21.8
				c-4.3,0-7.6,0.9-9.8,2.6s-3.3,4.3-3.3,7.7v6.6h34.9v23.3h-34.9v36.5H775.3z"/>
			<path class="st2" d="M864.2,217.3v-100h31.3v100H864.2z"/>
			<path class="st2" d="M970.8,140.6v76.7h-31.3v-76.7h-27v-23.3h85.3v23.3H970.8z"/>
		</g>
	</g>
</g>
</svg>
